<?xml version="1.0" encoding="UTF-8"?>
<svg width="249px" height="251px" viewBox="0 0 249 251" version="1.1" xmlns="http://www.w3.org/2000/svg" xmlns:xlink="http://www.w3.org/1999/xlink">
    <!-- Generator: Sketch 45.2 (43514) - http://www.bohemiancoding.com/sketch -->
    <title>Group 2</title>
    <desc>Created with Sketch.</desc>
    <defs></defs>
    <g id="Page-1" stroke="none" stroke-width="1" fill="none" fill-rule="evenodd">
        <g id="Group-2">
            <polyline id="Fill-165" fill="#FF8000" points="65.433 102.45 65.433 34.332 124.425 0.273 183.416 34.332 183.416 102.45 124.425 136.509 65.433 102.45"></polyline>
            <polyline id="Fill-166" fill="#FEA621" points="130.145 216.11 130.145 147.992 189.137 113.933 248.129 147.992 248.129 216.11 189.137 250.169 130.145 216.11"></polyline>
            <polyline id="Fill-167" fill="#FEA621" points="0.721 216.11 0.721 147.992 59.712 113.933 118.704 147.992 118.704 216.11 59.712 250.169 0.721 216.11"></polyline>
            <path d="M127.55,29.074 C127.55,29.074 126.548,29.282 124.792,29.575 C124.354,29.648 123.869,29.728 123.341,29.815 C122.864,29.958 122.35,30.09 121.805,30.233 C121.264,30.373 120.689,30.523 120.082,30.68 C119.482,30.825 118.83,31.099 118.165,31.311 C117.5,31.539 116.807,31.777 116.09,32.023 C115.401,32.349 114.682,32.65 113.947,32.969 C113.58,33.126 113.208,33.286 112.832,33.447 C112.462,33.623 112.106,33.844 111.737,34.042 C111.007,34.457 110.254,34.857 109.484,35.253 C108.049,36.234 106.491,37.118 105.114,38.31 C103.632,39.362 102.348,40.688 100.974,41.91 C99.758,43.289 98.446,44.584 97.396,46.066 C96.224,47.456 95.34,49.01 94.354,50.44 C93.949,51.206 93.55,51.96 93.161,52.698 C92.961,53.065 92.739,53.42 92.562,53.788 C92.399,54.164 92.239,54.535 92.08,54.901 C91.758,55.636 91.445,56.351 91.142,57.042 C90.893,57.758 90.652,58.448 90.421,59.112 C89.911,60.435 89.618,61.697 89.323,62.82 C89.172,63.384 89.031,63.912 88.901,64.399 C88.812,64.896 88.731,65.353 88.657,65.765 C88.362,67.422 88.141,68.391 88.141,68.391 L88.094,68.597 C87.863,69.607 86.857,70.239 85.847,70.009 C85.05,69.827 84.488,69.159 84.4,68.391 C84.4,68.391 84.28,67.341 84.163,65.465 C84.136,64.994 84.106,64.473 84.073,63.906 C84.103,63.34 84.136,62.728 84.171,62.074 C84.211,61.416 84.253,60.714 84.298,59.975 C84.34,59.232 84.539,58.48 84.665,57.674 C84.814,56.87 84.969,56.032 85.13,55.166 C85.389,54.322 85.657,53.451 85.932,52.555 C86.401,50.722 87.322,48.953 88.139,47.061 C89.169,45.286 90.109,43.352 91.463,41.652 C92.667,39.84 94.211,38.257 95.691,36.627 C97.327,35.151 98.92,33.622 100.732,32.42 C102.445,31.086 104.376,30.147 106.146,29.111 C107.081,28.681 108.008,28.275 108.921,27.897 C109.378,27.711 109.82,27.504 110.274,27.343 C110.734,27.198 111.189,27.055 111.637,26.914 C112.534,26.636 113.401,26.356 114.247,26.121 C115.112,25.957 115.948,25.799 116.75,25.646 C117.56,25.518 118.29,25.311 119.063,25.277 C119.822,25.226 120.542,25.178 121.218,25.132 C121.891,25.09 122.517,25.048 123.094,25.029 C123.63,25.061 124.122,25.09 124.567,25.117 C126.343,25.232 127.36,25.337 127.36,25.337 C128.4,25.445 129.156,26.376 129.048,27.416 C128.96,28.255 128.334,28.91 127.55,29.074" id="Fill-168" fill="#FFFFFF"></path>
            <path d="M192.262,142.734 C192.262,142.734 191.26,142.942 189.504,143.235 C189.066,143.308 188.581,143.388 188.053,143.476 C187.576,143.618 187.062,143.75 186.518,143.894 C185.977,144.034 185.401,144.183 184.794,144.34 C184.195,144.485 183.542,144.759 182.877,144.972 C182.212,145.2 181.519,145.437 180.802,145.683 C180.113,146.009 179.394,146.31 178.659,146.629 C178.292,146.786 177.92,146.946 177.544,147.107 C177.174,147.284 176.818,147.504 176.449,147.703 C175.719,148.117 174.966,148.517 174.197,148.913 C172.761,149.894 171.203,150.778 169.826,151.97 C168.344,153.022 167.06,154.349 165.687,155.57 C164.47,156.949 163.158,158.244 162.108,159.726 C160.936,161.116 160.052,162.67 159.066,164.1 C158.661,164.867 158.262,165.62 157.873,166.358 C157.673,166.726 157.451,167.08 157.274,167.449 C157.111,167.824 156.951,168.195 156.792,168.561 C156.47,169.296 156.157,170.011 155.854,170.703 C155.605,171.418 155.365,172.109 155.133,172.772 C154.623,174.095 154.33,175.358 154.035,176.481 C153.884,177.044 153.743,177.572 153.613,178.06 C153.524,178.557 153.443,179.013 153.369,179.426 C153.074,181.082 152.853,182.051 152.853,182.051 L152.806,182.257 C152.575,183.267 151.569,183.9 150.559,183.669 C149.762,183.487 149.2,182.819 149.112,182.051 C149.112,182.051 148.992,181.001 148.875,179.125 C148.848,178.655 148.818,178.134 148.785,177.566 C148.815,177 148.848,176.388 148.883,175.735 C148.923,175.076 148.966,174.375 149.01,173.636 C149.052,172.893 149.252,172.14 149.377,171.335 C149.526,170.53 149.681,169.693 149.842,168.826 C150.101,167.983 150.369,167.111 150.644,166.215 C151.113,164.382 152.034,162.614 152.851,160.722 C153.881,158.947 154.821,157.012 156.175,155.312 C157.379,153.5 158.923,151.918 160.403,150.287 C162.04,148.812 163.632,147.282 165.444,146.08 C167.157,144.747 169.088,143.807 170.858,142.771 C171.793,142.341 172.72,141.935 173.633,141.557 C174.09,141.371 174.532,141.164 174.986,141.003 C175.446,140.859 175.901,140.716 176.349,140.575 C177.246,140.296 178.113,140.016 178.959,139.781 C179.824,139.617 180.66,139.459 181.462,139.307 C182.272,139.179 183.002,138.971 183.775,138.938 C184.534,138.887 185.254,138.838 185.93,138.793 C186.603,138.75 187.229,138.708 187.806,138.69 C188.342,138.722 188.834,138.751 189.279,138.777 C191.055,138.892 192.072,138.998 192.072,138.998 C193.112,139.106 193.868,140.036 193.76,141.076 C193.673,141.916 193.046,142.57 192.262,142.734" id="Fill-169" fill="#FFFFFF"></path>
            <path d="M62.838,142.734 C62.838,142.734 61.836,142.942 60.08,143.235 C59.642,143.308 59.157,143.388 58.629,143.476 C58.152,143.618 57.638,143.75 57.093,143.894 C56.552,144.034 55.977,144.183 55.37,144.34 C54.77,144.485 54.118,144.759 53.453,144.972 C52.787,145.2 52.095,145.437 51.378,145.683 C50.689,146.009 49.97,146.31 49.235,146.629 C48.868,146.786 48.496,146.946 48.12,147.107 C47.75,147.284 47.394,147.504 47.025,147.703 C46.295,148.117 45.542,148.517 44.772,148.913 C43.337,149.894 41.779,150.778 40.402,151.97 C38.92,153.022 37.636,154.349 36.262,155.57 C35.045,156.949 33.734,158.244 32.684,159.726 C31.512,161.116 30.628,162.67 29.642,164.1 C29.237,164.867 28.838,165.62 28.448,166.358 C28.249,166.726 28.027,167.08 27.85,167.449 C27.687,167.824 27.526,168.195 27.368,168.561 C27.046,169.296 26.733,170.011 26.43,170.703 C26.181,171.418 25.94,172.109 25.709,172.772 C25.199,174.095 24.906,175.358 24.611,176.481 C24.46,177.044 24.319,177.572 24.189,178.06 C24.1,178.557 24.019,179.013 23.945,179.426 C23.65,181.082 23.429,182.051 23.429,182.051 L23.382,182.257 C23.151,183.267 22.145,183.9 21.134,183.669 C20.338,183.487 19.776,182.819 19.687,182.051 C19.687,182.051 19.568,181.001 19.451,179.125 C19.424,178.655 19.394,178.134 19.361,177.566 C19.391,177 19.424,176.388 19.459,175.735 C19.499,175.076 19.541,174.375 19.586,173.636 C19.628,172.893 19.827,172.14 19.953,171.335 C20.102,170.53 20.257,169.693 20.418,168.826 C20.677,167.983 20.944,167.111 21.22,166.215 C21.688,164.382 22.609,162.614 23.427,160.722 C24.457,158.947 25.397,157.012 26.751,155.312 C27.955,153.5 29.499,151.918 30.979,150.287 C32.615,148.812 34.208,147.282 36.02,146.08 C37.733,144.747 39.664,143.807 41.434,142.771 C42.369,142.341 43.296,141.935 44.209,141.557 C44.666,141.371 45.108,141.164 45.562,141.003 C46.022,140.859 46.477,140.716 46.925,140.575 C47.822,140.296 48.689,140.016 49.535,139.781 C50.4,139.617 51.236,139.459 52.038,139.307 C52.848,139.179 53.578,138.971 54.351,138.938 C55.11,138.887 55.829,138.838 56.506,138.793 C57.179,138.75 57.805,138.708 58.381,138.69 C58.917,138.722 59.41,138.751 59.855,138.777 C61.631,138.892 62.648,138.998 62.648,138.998 C63.688,139.106 64.444,140.036 64.336,141.076 C64.248,141.916 63.622,142.57 62.838,142.734" id="Fill-170" fill="#FFFFFF"></path>
        </g>
    </g>
</svg>
